<svg width="49" height="48" viewBox="0 0 49 48" fill="none" xmlns="http://www.w3.org/2000/svg">
<path d="M44.1197 7.88006C41.4997 14.4201 35.5197 22.9601 29.8197 28.5401C28.9997 23.3801 24.8797 19.3401 19.6797 18.6201C25.2797 12.9001 33.8797 6.84006 40.4397 4.20006C41.5997 3.76006 42.7597 4.10006 43.4797 4.82006C44.2397 5.58006 44.5997 6.72006 44.1197 7.88006Z" fill="#5683F8"/>
<path d="M28.0583 30.18C27.6583 30.52 27.2583 30.86 26.8583 31.18L23.2783 34.04C23.2783 33.98 23.2583 33.9 23.2583 33.82C22.9783 31.68 21.9783 29.7 20.3583 28.08C18.7183 26.44 16.6783 25.44 14.4383 25.16C14.3783 25.16 14.2983 25.14 14.2383 25.14L17.1383 21.48C17.4183 21.12 17.7183 20.78 18.0383 20.42L19.3983 20.6C23.6983 21.2 27.1583 24.58 27.8383 28.86L28.0583 30.18Z" fill="#5683F8"/>
<path d="M21.3595 35.24C21.3595 37.44 20.5195 39.54 18.9195 41.12C17.6995 42.36 16.0595 43.2 14.0595 43.44L9.15953 43.98C6.47953 44.28 4.17953 41.98 4.47953 39.28L5.01953 34.36C5.49953 29.98 9.15953 27.18 13.0395 27.1C13.4195 27.08 13.8395 27.1 14.2395 27.14C15.9395 27.36 17.5795 28.14 18.9595 29.5C20.2995 30.84 21.0595 32.42 21.2795 34.08C21.3195 34.48 21.3595 34.86 21.3595 35.24Z" fill="#5683F8"/>
</svg>
