<svg width="48" height="48" viewBox="0 0 48 48" fill="none" xmlns="http://www.w3.org/2000/svg">
<path d="M33.5005 7.12V4C33.5005 3.18 32.8205 2.5 32.0005 2.5C31.1805 2.5 30.5005 3.18 30.5005 4V7H17.5005V4C17.5005 3.18 16.8205 2.5 16.0005 2.5C15.1805 2.5 14.5005 3.18 14.5005 4V7.12C9.10046 7.62 6.48046 10.84 6.08046 15.62C6.04046 16.2 6.52046 16.68 7.08046 16.68H40.9205C41.5005 16.68 41.9805 16.18 41.9205 15.62C41.5205 10.84 38.9005 7.62 33.5005 7.12Z" fill="#5683F8"/>
<path d="M40 19.6801H8C6.9 19.6801 6 20.5801 6 21.6801V34.0001C6 40.0001 9 44.0001 16 44.0001H32C39 44.0001 42 40.0001 42 34.0001V21.6801C42 20.5801 41.1 19.6801 40 19.6801ZM29.68 29.9801L28.68 31.0001H28.66L22.6 37.0601C22.34 37.3201 21.8 37.6001 21.42 37.6401L18.72 38.0401C17.74 38.1801 17.06 37.4801 17.2 36.5201L17.58 33.8001C17.64 33.4201 17.9 32.9001 18.16 32.6201L24.24 26.5601L25.24 25.5401C25.9 24.8801 26.64 24.4001 27.44 24.4001C28.12 24.4001 28.86 24.7201 29.68 25.5401C31.48 27.3401 30.9 28.7601 29.68 29.9801Z" fill="#5683F8"/>
</svg>
