<svg width="49" height="48" viewBox="0 0 49 48" fill="none" xmlns="http://www.w3.org/2000/svg">
<path d="M44.5018 33V39C44.5018 41.76 42.2618 44 39.5018 44H25.2218C23.4418 44 22.5618 41.86 23.8018 40.6L35.5418 28.6C35.9218 28.22 36.4418 28 36.9618 28H39.5018C42.2618 28 44.5018 30.24 44.5018 33Z" fill="#5683F8"/>
<path d="M37.2405 22.58L31.8205 28L26.9005 32.9C25.6405 34.16 23.4805 33.28 23.4805 31.5C23.4805 25.08 23.4805 14.52 23.4805 14.52C23.4805 13.98 23.7005 13.48 24.0605 13.1L25.9005 11.26C27.8605 9.30004 31.0205 9.30004 32.9805 11.26L37.2205 15.5C39.2005 17.46 39.2005 20.62 37.2405 22.58Z" fill="#5683F8"/>
<path d="M15.5 4H9.5C6.5 4 4.5 6 4.5 9V36C4.5 36.54 4.56 37.08 4.66 37.6C4.72 37.86 4.78 38.12 4.86 38.38C4.96 38.68 5.06 38.98 5.18 39.26C5.2 39.28 5.2 39.3 5.2 39.3C5.22 39.3 5.22 39.3 5.2 39.32C5.48 39.88 5.8 40.42 6.18 40.92C6.4 41.18 6.62 41.42 6.84 41.66C7.06 41.9 7.3 42.1 7.56 42.3L7.58 42.32C8.08 42.7 8.62 43.02 9.18 43.3C9.2 43.28 9.2 43.28 9.2 43.3C9.5 43.44 9.8 43.54 10.12 43.64C10.38 43.72 10.64 43.78 10.9 43.84C11.42 43.94 11.96 44 12.5 44C13.32 44 14.16 43.88 14.94 43.62C15.16 43.54 15.38 43.46 15.6 43.36C16.3 43.08 16.98 42.68 17.58 42.16C17.76 42.02 17.96 41.84 18.14 41.66L18.22 41.58C19.62 40.14 20.5 38.16 20.5 36V9C20.5 6 18.5 4 15.5 4ZM12.5 39C10.84 39 9.5 37.66 9.5 36C9.5 34.34 10.84 33 12.5 33C14.16 33 15.5 34.34 15.5 36C15.5 37.66 14.16 39 12.5 39Z" fill="#5683F8"/>
</svg>
