<svg width="49" height="48" viewBox="0 0 49 48" fill="none" xmlns="http://www.w3.org/2000/svg">
<path d="M27.3607 30H9.30067C5.66067 30 3.34067 26.1 5.10067 22.9L9.76067 14.42L14.1207 6.48C15.9407 3.18 20.7007 3.18 22.5207 6.48L26.9007 14.42L29.0007 18.24L31.5607 22.9C33.3207 26.1 31.0007 30 27.3607 30Z" fill="#5683F8"/>
<path d="M45.8015 32C45.8015 39.18 39.9815 45 32.8015 45C26.7015 45 21.6015 40.82 20.1815 35.14C20.0415 34.54 20.5015 34 21.1215 34H28.6615C31.4415 34 33.9615 32.56 35.3815 30.18C36.7815 27.78 36.8415 24.9 35.4815 22.46L34.4815 20.62C34.1015 19.94 34.6415 19.12 35.4015 19.26C41.3215 20.46 45.8015 25.7 45.8015 32Z" fill="#5683F8"/>
</svg>
