<svg width="48" height="48" viewBox="0 0 48 48" fill="none" xmlns="http://www.w3.org/2000/svg">
<path d="M22.5 15.72H4V32.38C4 32.5 4 32.62 4.02 32.72H22.5V15.72Z" fill="#5683F8"/>
<path d="M15.3789 12.72H22.4989V4H15.4389V12.48C15.4389 12.56 15.3989 12.64 15.3789 12.72Z" fill="#5683F8"/>
<path d="M12.4417 12.4799V4.31995C8.00172 5.23995 5.10172 8.19995 4.26172 12.7199H12.4817C12.4617 12.6399 12.4417 12.5599 12.4417 12.4799Z" fill="#5683F8"/>
<path d="M32.44 4H25.5V12.72H32.44V4Z" fill="#5683F8"/>
<path d="M35.4219 12.72H43.7419C42.9019 8.16005 39.9619 5.18005 35.4419 4.30005V12.66C35.4419 12.68 35.4219 12.7 35.4219 12.72Z" fill="#5683F8"/>
<path d="M35.4414 43.7C39.8214 42.84 42.7014 40.04 43.6414 35.72H35.4414V43.7Z" fill="#5683F8"/>
<path d="M32.44 35.72H25.5V44H32.44V35.72Z" fill="#5683F8"/>
<path d="M25.5 32.72H43.98C44 32.62 44 32.5 44 32.38V15.72H25.5V32.72Z" fill="#5683F8"/>
<path d="M22.5014 35.72H15.4414V44H22.5014V35.72Z" fill="#5683F8"/>
<path d="M4.35938 35.72C5.29937 40 8.13937 42.8 12.4394 43.68V35.72H4.35938Z" fill="#5683F8"/>
</svg>
