<svg width="49" height="48" viewBox="0 0 49 48" fill="none" xmlns="http://www.w3.org/2000/svg">
<path d="M41.6022 18.8801H39.4022C39.1022 18.8801 38.8022 18.9401 38.5222 19.0201L28.5422 9.04008C29.5022 7.80008 29.4222 6.02008 28.2822 4.90008L26.7222 3.34008C25.5422 2.16008 23.4622 2.16008 22.2622 3.34008L20.7022 4.90008C19.5822 6.02008 19.5022 7.80008 20.4622 9.04008L10.4822 19.0201C10.2022 18.9401 9.90219 18.8801 9.60219 18.8801H7.40219C5.66219 18.8801 4.24219 20.3001 4.24219 22.0401V24.2401C4.24219 25.9801 5.66219 27.4001 7.40219 27.4001H9.60219C11.3422 27.4001 12.7622 25.9801 12.7622 24.2401V22.0401C12.7622 21.7401 12.7022 21.4401 12.6222 21.1601L22.6022 11.1801C23.1422 11.6001 23.8222 11.8201 24.5022 11.8201C25.1822 11.8201 25.8622 11.5801 26.4222 11.1601L36.4022 21.1401C36.3222 21.4201 36.2622 21.7201 36.2622 22.0201V24.2201C36.2622 25.9601 37.6822 27.3801 39.4222 27.3801H41.6222C43.3622 27.3801 44.7822 25.9601 44.7822 24.2201V22.0201C44.7422 20.2801 43.3422 18.8801 41.6022 18.8801Z" fill="#2C64F7"/>
<path d="M31.9981 33.0999L28.7181 35.9999H20.1981L16.9181 33.0999C15.0181 31.5399 15.0181 30.3399 16.4581 28.4999L22.2381 21.1799C22.6381 20.6799 23.0981 20.3399 23.6181 20.1599C24.1581 19.9799 24.7381 19.9799 25.2981 20.1599C25.7981 20.3399 26.2581 20.6799 26.6781 21.1799L32.4581 28.4999C33.8981 30.3199 33.8381 31.4599 31.9981 33.0999Z" fill="#2C64F7"/>
<path d="M27.0817 43.9999H21.9017C20.0617 43.9999 18.6817 42.4999 19.0417 40.8999L19.6617 38.1199C19.7817 37.5599 20.2817 37.1799 20.8417 37.1799H28.1417C28.7017 37.1799 29.1817 37.5599 29.3217 38.1199L29.9417 40.8999C30.3417 42.5999 29.0417 43.9999 27.0817 43.9999Z" fill="#2C64F7"/>
</svg>
